<svg xmlns="http://www.w3.org/2000/svg" xmlns:xlink="http://www.w3.org/1999/xlink" width="512" zoomAndPan="magnify" viewBox="0 0 384 383.999986" height="512" preserveAspectRatio="xMidYMid meet" version="1.0"><defs><clipPath id="id1"><path d="M 48.167969 38.398438 L 336.167969 38.398438 L 336.167969 326.398438 L 48.167969 326.398438 Z M 48.167969 38.398438 " clip-rule="nonzero"/></clipPath></defs><path fill="rgb(100%, 100%, 100%)" d="M 333.917969 253.152344 C 333.917969 292.226562 302 324.148438 262.914062 324.148438 L 121.398438 324.148438 C 82.328125 324.148438 50.417969 292.226562 50.417969 253.152344 L 50.417969 111.644531 C 50.417969 72.558594 82.328125 40.648438 121.398438 40.648438 L 262.914062 40.648438 C 302 40.648438 333.917969 72.558594 333.917969 111.644531 Z M 333.917969 253.152344 " fill-opacity="1" fill-rule="nonzero"/><path fill="rgb(100%, 100%, 100%)" d="M 169.667969 270.148438 L 203.417969 270.148438 L 203.417969 182.398438 L 230.21875 182.398438 L 233.449219 146.398438 L 205.667969 146.398438 L 205.667969 132.878906 C 205.667969 125.984375 209.917969 123.898438 213.144531 123.898438 L 232.667969 123.898438 L 232.667969 94.070312 L 205 93.957031 C 174.664062 93.957031 167.417969 116.558594 167.417969 131.03125 L 167.417969 146.398438 L 151.667969 146.398438 L 151.667969 182.398438 L 169.667969 182.398438 Z M 169.667969 270.148438 " fill-opacity="1" fill-rule="nonzero"/><path stroke-linecap="round" transform="matrix(2.25, 0, 0, 2.25, 48.169914, 38.399997)" fill="none" stroke-linejoin="round" d="M 68.999148 93.999324 L 68.999148 102.999326 L 53.999146 102.999326 L 53.999146 63.999319 L 45.999144 63.999319 L 45.999144 47.999316 L 52.999145 47.999316 L 52.999145 41.169453 C 52.999145 34.737161 56.219632 24.69202 69.702273 24.69202 L 81.999151 24.742367 L 81.999151 37.999314 L 73.322066 37.999314 C 71.888038 37.999314 69.999149 38.926397 69.999149 41.990634 L 69.999149 47.999316 L 82.344637 47.999316 L 80.910609 63.999319 L 68.999148 63.999319 L 68.999148 76.999321 " stroke="rgb(19.999695%, 19.999695%, 19.999695%)" stroke-width="2" stroke-opacity="1" stroke-miterlimit="10"/><g clip-path="url(#id1)"><path stroke-linecap="round" transform="matrix(2.25, 0, 0, 2.25, 48.169914, 38.399997)" fill="none" stroke-linejoin="round" d="M 95.440125 0.999307 L 32.54428 0.999307 C 15.18143 0.999307 0.999136 15.181601 0.999136 32.553132 L 0.999136 95.445505 C 0.999136 112.811828 15.18143 126.999331 32.54428 126.999331 L 95.440125 126.999331 C 112.811657 126.999331 126.999159 112.811828 126.999159 95.445505 L 126.999159 32.553132 C 126.999159 15.181601 112.811657 0.999307 95.440125 0.999307 Z M 95.440125 0.999307 " stroke="rgb(19.999695%, 19.999695%, 19.999695%)" stroke-width="2" stroke-opacity="1" stroke-miterlimit="10"/></g><path stroke-linecap="round" transform="matrix(2.25, 0, 0, 2.25, 48.169914, 38.399997)" fill="none" stroke-linejoin="round" d="M 92.999153 6.999308 L 34.768239 6.999308 C 19.617195 6.999308 6.999137 19.61563 6.999137 34.768411 L 6.999137 93.230227 C 6.999137 108.381271 19.617195 120.999329 34.768239 120.999329 L 93.230056 120.999329 C 108.382836 120.999329 120.999158 108.381271 120.999158 93.228491 L 120.999158 64.999319 " stroke="rgb(19.999695%, 19.999695%, 19.999695%)" stroke-width="2" stroke-opacity="1" stroke-miterlimit="10"/><path stroke-linecap="round" transform="matrix(2.25, 0, 0, 2.25, 48.169914, 38.399997)" fill="none" stroke-linejoin="round" d="M 92.999153 6.999308 C 100.575543 6.999308 107.665822 10.403823 112.629365 15.367365 " stroke="rgb(19.999695%, 19.999695%, 19.999695%)" stroke-width="2" stroke-opacity="1" stroke-miterlimit="10"/><path stroke-linecap="round" transform="matrix(2.25, 0, 0, 2.25, 48.169914, 38.399997)" fill="none" stroke-linejoin="round" d="M 120.999158 57.999318 L 120.999158 42.999315 " stroke="rgb(19.999695%, 19.999695%, 19.999695%)" stroke-width="2" stroke-opacity="1" stroke-miterlimit="10"/></svg>