<svg xmlns="http://www.w3.org/2000/svg" xmlns:xlink="http://www.w3.org/1999/xlink" width="400" zoomAndPan="magnify" viewBox="0 0 300 299.999988" height="400" preserveAspectRatio="xMidYMid meet" version="1.0"><defs><clipPath id="id1"><path d="M 12.363281 12.363281 L 287.613281 12.363281 L 287.613281 287.613281 L 12.363281 287.613281 Z M 12.363281 12.363281 " clip-rule="nonzero"/></clipPath></defs><g clip-path="url(#id1)"><path fill="rgb(100% 100% 100%)" d="M 28.597656 149.988281 C 28.597656 83.097656 82.832031 28.597656 149.4375 28.597656 C 216.59375 28.597656 271.367188 83.097656 271.367188 149.988281 C 271.367188 216.875 216.875 271.375 149.4375 271.375 C 126.3125 271.375 103.742188 264.765625 84.476562 252.378906 L 81.453125 250.453125 L 36.304688 263.667969 L 49.519531 218.53125 L 47.597656 215.5 C 35.210938 196.230469 28.597656 173.382812 28.597656 149.988281 Z M 78.96875 268.066406 C 100.164062 280.730469 124.664062 287.613281 149.4375 287.613281 C 225.132812 287.613281 287.613281 225.949219 287.613281 149.988281 C 287.613281 74.292969 225.410156 12.363281 149.4375 12.363281 C 74.011719 12.363281 12.363281 74.011719 12.363281 149.988281 C 12.363281 175.308594 19.242188 199.800781 31.910156 221.003906 L 12.363281 287.613281 L 78.96875 268.066406 " fill-opacity="1" fill-rule="nonzero"/></g><path fill="rgb(100% 100% 100%)" d="M 98.785156 85.023438 C 105.398438 78.421875 105.117188 78.421875 105.945312 78.421875 C 106.226562 78.421875 106.496094 78.421875 106.773438 78.703125 C 133.75 105.945312 132.644531 104.289062 132.644531 105.117188 C 132.644531 105.398438 132.644531 105.667969 132.375 105.945312 L 126.042969 112.28125 C 115.859375 122.460938 115.859375 138.976562 126.042969 149.160156 L 151.644531 175.867188 C 161.824219 186.039062 179.4375 186.039062 189.628906 175.867188 L 195.953125 169.523438 C 196.230469 169.253906 197.046875 169.253906 197.328125 169.523438 C 224.304688 196.78125 223.195312 195.132812 223.195312 195.953125 C 223.195312 196.230469 223.195312 196.511719 222.929688 196.78125 L 216.59375 203.113281 C 212.1875 207.519531 198.15625 209.992188 179.996094 206.683594 C 167.878906 204.488281 144.480469 197.605469 124.386719 177.511719 C 104.289062 157.417969 97.6875 134.300781 95.214844 121.914062 C 91.636719 103.472656 94.386719 89.433594 98.785156 85.023438 Z M 79.25 124.664062 C 82.003906 138.695312 89.710938 165.675781 112.828125 188.523438 C 135.945312 211.371094 162.640625 219.347656 176.683594 222.101562 C 192.652344 225.132812 216.316406 225.679688 227.605469 214.121094 L 233.9375 207.789062 C 237.238281 204.488281 238.894531 200.359375 238.894531 195.671875 C 238.894531 191.003906 237.238281 186.875 233.9375 183.566406 L 208.335938 157.976562 C 205.035156 154.664062 200.90625 153.007812 196.230469 153.007812 C 191.542969 153.007812 187.414062 154.664062 184.125 157.976562 L 177.78125 164.296875 C 173.929688 168.148438 166.5 168.148438 162.640625 164.296875 L 137.050781 137.601562 C 133.191406 133.75 133.191406 127.417969 137.050781 123.289062 L 143.386719 116.957031 C 149.988281 110.355469 149.988281 99.34375 143.386719 92.734375 L 117.785156 67.132812 C 111.171875 60.53125 100.164062 60.53125 93.5625 67.132812 L 87.226562 73.464844 C 78.140625 82.832031 75.121094 102.367188 79.25 124.664062 " fill-opacity="1" fill-rule="nonzero"/></svg>