<svg xmlns="http://www.w3.org/2000/svg" xmlns:xlink="http://www.w3.org/1999/xlink" width="400" zoomAndPan="magnify" viewBox="0 0 300 299.999988" height="400" preserveAspectRatio="xMidYMid meet" version="1.0"><defs><clipPath id="id1"><path d="M 7.839844 7.839844 L 292.089844 7.839844 L 292.089844 292.089844 L 7.839844 292.089844 Z M 7.839844 7.839844 " clip-rule="nonzero"/></clipPath></defs><g clip-path="url(#id1)"><path stroke-linecap="butt" transform="matrix(0.811447, 0, 0, 0.811447, 12.707885, 12.707879)" fill="none" stroke-linejoin="round" d="M 338.288216 169.141182 C 338.288216 262.507345 262.512152 338.278596 169.150803 338.278596 C 75.78464 338.278596 0.00857548 262.502531 0.00857548 169.141182 C 0.00857548 75.77502 75.78464 -0.00104499 169.150803 -0.00104499 C 262.512152 -0.00104499 338.288216 75.77502 338.288216 169.141182 Z M 338.288216 169.141182 " stroke="rgb(100% 100% 100%)" stroke-width="12" stroke-opacity="1" stroke-miterlimit="4"/></g><path fill="rgb(100% 100% 100%)" d="M 123.144531 68.363281 C 123.144531 61.496094 125.757812 55.640625 130.976562 50.792969 C 136.199219 45.949219 142.453125 43.523438 149.738281 43.523438 C 157.136719 43.523438 163.445312 45.949219 168.664062 50.792969 C 173.886719 55.640625 176.496094 61.496094 176.496094 68.363281 C 176.496094 75.128906 173.886719 80.984375 168.664062 85.929688 C 163.445312 90.777344 157.136719 93.199219 149.738281 93.199219 C 142.453125 93.199219 136.199219 90.777344 130.976562 85.929688 C 125.757812 80.984375 123.144531 75.125 123.144531 68.363281 Z M 174.210938 114.859375 L 174.210938 257.828125 L 125.757812 257.828125 L 125.757812 114.859375 L 174.210938 114.859375 " fill-opacity="1" fill-rule="nonzero"/></svg>