<svg xmlns="http://www.w3.org/2000/svg" xmlns:xlink="http://www.w3.org/1999/xlink" width="400" zoomAndPan="magnify" viewBox="0 0 300 299.999988" height="400" preserveAspectRatio="xMidYMid meet" version="1.0"><defs><clipPath id="id1"><path d="M 11.355469 11.355469 L 288.855469 11.355469 L 288.855469 288.855469 L 11.355469 288.855469 Z M 11.355469 11.355469 " clip-rule="nonzero"/></clipPath></defs><path fill="rgb(100% 100% 100%)" d="M 197.449219 145.402344 L 108.648438 89.902344 C 106.933594 88.824219 104.78125 88.769531 103.015625 89.757812 C 101.25 90.734375 100.15625 92.585938 100.15625 94.605469 L 100.15625 205.605469 C 100.15625 207.621094 101.25 209.480469 103.015625 210.464844 C 103.859375 210.921875 104.78125 211.15625 105.707031 211.15625 C 106.726562 211.15625 107.75 210.875 108.648438 210.3125 L 197.449219 154.8125 C 199.070312 153.796875 200.058594 152.023438 200.058594 150.105469 C 200.058594 148.191406 199.070312 146.417969 197.449219 145.402344 Z M 111.257812 195.589844 L 111.257812 104.617188 L 184.035156 150.105469 Z M 111.257812 195.589844 " fill-opacity="1" fill-rule="nonzero"/><g clip-path="url(#id1)"><path fill="rgb(100% 100% 100%)" d="M 150.105469 11.355469 C 73.601562 11.355469 11.355469 73.601562 11.355469 150.105469 C 11.355469 226.613281 73.601562 288.855469 150.105469 288.855469 C 226.613281 288.855469 288.855469 226.613281 288.855469 150.105469 C 288.855469 73.601562 226.613281 11.355469 150.105469 11.355469 Z M 150.105469 277.757812 C 79.722656 277.757812 22.457031 220.496094 22.457031 150.105469 C 22.457031 79.722656 79.722656 22.457031 150.105469 22.457031 C 220.496094 22.457031 277.757812 79.722656 277.757812 150.105469 C 277.757812 220.496094 220.496094 277.757812 150.105469 277.757812 Z M 150.105469 277.757812 " fill-opacity="1" fill-rule="nonzero"/></g></svg>