<svg version="1.2" xmlns="http://www.w3.org/2000/svg" viewBox="0 0 1920 1080" width="1920" height="1080">
	<title>LogoSectorSemVetor</title>
	<style>
		.s0 { fill: #ffffff } 
	</style>
	<path id="Forma 4" class="s0" d="m100 713c24 49.8 89.5 69.1 152 81.2c143.5 21.9 348-58 345-156.2c-3-98.2-223-15.8-323-85c-100-69.2-48-343.8 314-247c342.8 91.7 598.5 90.2 846 81.2c214-5 336.5-67.6 369-88.2c32.5-20.6 15 25.6 7 47c-8 21.4-76 36.3-127 45.2c-211 36-490 35-774 5c-311-43.1-470-114-555.5-66.6c-124 68.1-43.5 161.6 15.5 164.4c50.5 14.9 267.5-41.1 266.5 87.1c-1 123-157.5 214-227.5 243.1c-147.2 61.1-311.5-1.4-337-62.2c-25.5-60.8 3-106.8 22-133c19-26.2 52.8-42 66-44c13.4 1 9 9.2 5 9c-4-0.2-16 6-16 6c-41 18.8-72 63.2-48 113z"/>
	<path id="ector" class="s0" aria-label="ector"  d="m807.4 609.6c0-29.4-18.6-36.6-37.2-36.6c-70.8 0-152.4 101.4-152.4 172.8c0 39 24.6 69.6 73.2 69.6c59.4 0 121.8-46.2 154.2-118.2l-7.2-5.4c-30 57.6-83.4 106.2-134.4 106.2c-37.2 0-47.4-25.8-47.4-50.4c0-6 0.6-13.8 2.4-21.6c68.4-6.6 148.8-55.2 148.8-116.4zm-39-18c10.2 0 12.6 4.8 12.6 13.8c0 51.6-76.8 94.2-119.4 109.2c16.2-57 68.4-123 106.8-123zm186.6-5.4c-61.2 0-131.4 79.2-131.4 159.6c0 51.6 28.8 76.8 67.2 76.8c58.2 0 121.2-52.8 148.8-125.4l-7.8-6c-25.8 66.6-79.8 108.6-127.2 108.6c-34.2 0-43.8-25.2-43.8-49.8c0-58.8 55.8-147 98.4-147c10.2 0 13.2 5.4 13.2 15c0 18-10.2 41.4-22.2 47.4c5.4 6.6 11.4 9 17.4 9c18.6 0 30-20.4 30-43.8c0-21-9.6-44.4-42.6-44.4zm248.4 11.4c-30 3-59.4 3.6-85.8 3.6h-22.2c34.8-73.8 79.8-136.2 79.8-157.2c0-8.4-6.6-13.2-12.6-13.2c-24.6 0-70.8 82.2-104.4 168.6c-11.4-0.6-20.4-1.8-26.4-2.4v10.8c6.6 2.4 13.8 3.6 21.6 4.8c-20.4 54.6-34.8 109.2-34.8 144.6c0 39.6 18.6 59.4 53.4 59.4c56.4 0 110.4-51 139.2-118.8l-7.8-6c-30.6 63-72.6 102.6-114 102.6c-24 0-33.6-13.2-33.6-48c0-42.6 14.4-88.2 33-130.8h9c27 0 61.8-2.4 105.6-7.2zm154.2 91.2c0-31.8 23.4-60.6 23.4-75.6c0-7.2-5.4-23.4-20.4-23.4c-1.8 0-3 0-4.2 0.6c-3.6-7.2-10.8-12.6-25.8-12.6c-71.4 0-145.2 114.6-145.2 178.2c0 30.6 17.4 52.2 48 52.2c42 0 79.8-40.8 105-99.6c9.6 18.6 28.2 27.6 51 27.6c45.6 0 87.6-73.8 105.6-128.4c15 10.8 33.6 19.8 33.6 45.6c0 31.8-33 76.8-33 112.2c0 23.4 16.8 39 43.8 39c51 0 102.6-54 125.4-105l-7.8-6c-15 34.8-64.2 89.4-102 89.4c-9.6 0-18-3.6-18-18c0-25.2 30-64.8 30-101.4c0-51-61.2-61.2-61.2-83.4c0-2.4 6.6-18 6.6-22.2c0-4.2 0-14.4-8.4-14.4c-6.6 0-25.2 16.8-25.2 40.8c0 6 2.4 10.8 6 14.4c-14.4 52.8-60.6 123-91.8 123c-25.2 0-35.4-10.8-35.4-33zm-111 93.6c-14.4 0-22.8-12-22.8-30.6c0-45.6 48.6-150.6 116.4-150.6c-6.6 10.2-11.4 27.6-11.4 54.6c0 13.8 1.2 24.6 3.6 34.2c-21.6 51.6-58.8 92.4-85.8 92.4z"/>
</svg>