<svg version="1.2" xmlns="http://www.w3.org/2000/svg" viewBox="0 0 1920 1080" width="1920" height="1080">
	<title>LogoSectorSemVetor</title>
	<style>
		.s0 { fill: #ff0000 } 
	</style>
	<path id="Forma 4" class="s0" d="m100 713c24 49.8 89.5 69.1 152 81.2c143.5 21.9 348-58 345-156.2c-3-98.2-223-15.8-323-85c-100-69.2-48-343.8 314-247c342.8 91.7 598.5 90.2 846 81.2c214-5 336.5-67.6 369-88.2c32.5-20.6 15 25.6 7 47c-8 21.4-76 36.3-127 45.2c-211 36-490 35-774 5c-311-43.1-470-114-555.5-66.6c-124 68.1-43.5 161.6 15.5 164.4c50.5 14.9 267.5-41.1 266.5 87.1c-1 123-157.5 214-227.5 243.1c-147.2 61.1-311.5-1.4-337-62.2c-25.5-60.8 3-106.8 22-133c19-26.2 52.8-42 66-44c13.4 1 9 9.2 5 9c-4-0.2-16 6-16 6c-41 18.8-72 63.2-48 113z"/>
</svg>